<?xml version="1.0" encoding="UTF-8"?>
<!DOCTYPE svg PUBLIC "-//W3C//DTD SVG 1.1//EN" "http://www.w3.org/Graphics/SVG/1.1/DTD/svg11.dtd">
<svg xmlns="http://www.w3.org/2000/svg" class="recharts-surface" width="569" height="400" viewBox="0 0 569 400" style="width: 100%; height: 100%;"><title/><desc/><defs><clipPath id="recharts180-clip"><rect x="66" y="40" height="280" width="473"/></clipPath></defs><g class="recharts-cartesian-grid"><g class="recharts-cartesian-grid-horizontal"><line stroke-dasharray="3 3" stroke="#cccccc" fill="none" x="66" y="40" width="473" height="280" x1="66" y1="320" x2="539" y2="320"/><line stroke-dasharray="3 3" stroke="#cccccc" fill="none" x="66" y="40" width="473" height="280" x1="66" y1="250" x2="539" y2="250"/><line stroke-dasharray="3 3" stroke="#cccccc" fill="none" x="66" y="40" width="473" height="280" x1="66" y1="180" x2="539" y2="180"/><line stroke-dasharray="3 3" stroke="#cccccc" fill="none" x="66" y="40" width="473" height="280" x1="66" y1="110" x2="539" y2="110"/><line stroke-dasharray="3 3" stroke="#cccccc" fill="none" x="66" y="40" width="473" height="280" x1="66" y1="40" x2="539" y2="40"/></g></g><g class="recharts-layer recharts-cartesian-axis recharts-xAxis xAxis"><g class="recharts-cartesian-axis-ticks"><g class="recharts-layer recharts-cartesian-axis-tick"><g transform="translate(105.41666666666666,334)"><text x="0" y="0" dy="16" text-anchor="middle" fill="#222222" font-size="12" font-family="NVIDIA" font-weight="700">January</text></g></g><g class="recharts-layer recharts-cartesian-axis-tick"><g transform="translate(184.24999999999997,334)"><text x="0" y="0" dy="16" text-anchor="middle" fill="#222222" font-size="12" font-family="NVIDIA" font-weight="700">February</text></g></g><g class="recharts-layer recharts-cartesian-axis-tick"><g transform="translate(263.0833333333333,334)"><text x="0" y="0" dy="16" text-anchor="middle" fill="#222222" font-size="12" font-family="NVIDIA" font-weight="700">March</text></g></g><g class="recharts-layer recharts-cartesian-axis-tick"><g transform="translate(341.9166666666667,334)"><text x="0" y="0" dy="16" text-anchor="middle" fill="#222222" font-size="12" font-family="NVIDIA" font-weight="700">April</text></g></g><g class="recharts-layer recharts-cartesian-axis-tick"><g transform="translate(420.75,334)"><text x="0" y="0" dy="16" text-anchor="middle" fill="#222222" font-size="12" font-family="NVIDIA" font-weight="700">May</text></g></g><g class="recharts-layer recharts-cartesian-axis-tick"><g transform="translate(499.5833333333333,334)"><text x="0" y="0" dy="16" text-anchor="middle" fill="#222222" font-size="12" font-family="NVIDIA" font-weight="700">June</text></g></g></g></g><g class="recharts-layer recharts-cartesian-axis recharts-yAxis yAxis"><g class="recharts-cartesian-axis-ticks"><g class="recharts-layer recharts-cartesian-axis-tick"><text orientation="left" width="60" height="280" stroke="none" font-size="12" font-family="NVIDIA" x="52" y="320" class="recharts-text recharts-cartesian-axis-tick-value" text-anchor="end" fill="#222222"><tspan x="52" dy="0.355em">0</tspan></text></g><g class="recharts-layer recharts-cartesian-axis-tick"><text orientation="left" width="60" height="280" stroke="none" font-size="12" font-family="NVIDIA" x="52" y="250" class="recharts-text recharts-cartesian-axis-tick-value" text-anchor="end" fill="#222222"><tspan x="52" dy="0.355em">100</tspan></text></g><g class="recharts-layer recharts-cartesian-axis-tick"><text orientation="left" width="60" height="280" stroke="none" font-size="12" font-family="NVIDIA" x="52" y="180" class="recharts-text recharts-cartesian-axis-tick-value" text-anchor="end" fill="#222222"><tspan x="52" dy="0.355em">200</tspan></text></g><g class="recharts-layer recharts-cartesian-axis-tick"><text orientation="left" width="60" height="280" stroke="none" font-size="12" font-family="NVIDIA" x="52" y="110" class="recharts-text recharts-cartesian-axis-tick-value" text-anchor="end" fill="#222222"><tspan x="52" dy="0.355em">300</tspan></text></g><g class="recharts-layer recharts-cartesian-axis-tick"><text orientation="left" width="60" height="280" stroke="none" font-size="12" font-family="NVIDIA" x="52" y="40" class="recharts-text recharts-cartesian-axis-tick-value" text-anchor="end" fill="#222222"><tspan x="52" dy="0.355em">400</tspan></text></g></g></g><g class="recharts-layer recharts-bar"><g class="recharts-layer recharts-bar-rectangles"><g class="recharts-layer"><g class="recharts-layer recharts-bar-rectangle"><path x="81.76666666666667" y="189.79999999999998" width="21" height="130.20000000000002" radius="0" fill="#76B900" class="recharts-rectangle" d="M 81.76666666666667,189.79999999999998 h 21 v 130.20000000000002 h -21 Z"/></g><g class="recharts-layer recharts-bar-rectangle"><path x="160.59999999999997" y="106.50000000000001" width="21" height="213.5" radius="0" fill="#76B900" class="recharts-rectangle" d="M 160.59999999999997,106.50000000000001 h 21 v 213.5 h -21 Z"/></g><g class="recharts-layer recharts-bar-rectangle"><path x="239.43333333333334" y="154.09999999999997" width="21" height="165.90000000000003" radius="0" fill="#76B900" class="recharts-rectangle" d="M 239.43333333333334,154.09999999999997 h 21 v 165.90000000000003 h -21 Z"/></g><g class="recharts-layer recharts-bar-rectangle"><path x="318.26666666666665" y="268.90000000000003" width="21" height="51.099999999999966" radius="0" fill="#76B900" class="recharts-rectangle" d="M 318.26666666666665,268.90000000000003 h 21 v 51.099999999999966 h -21 Z"/></g><g class="recharts-layer recharts-bar-rectangle"><path x="397.09999999999997" y="173.70000000000002" width="21" height="146.29999999999998" radius="0" fill="#76B900" class="recharts-rectangle" d="M 397.09999999999997,173.70000000000002 h 21 v 146.29999999999998 h -21 Z"/></g><g class="recharts-layer recharts-bar-rectangle"><path x="475.9333333333333" y="170.2" width="21" height="149.8" radius="0" fill="#76B900" class="recharts-rectangle" d="M 475.9333333333333,170.2 h 21 v 149.8 h -21 Z"/></g></g></g><g class="recharts-layer"/></g><g class="recharts-layer recharts-bar"><g class="recharts-layer recharts-bar-rectangles"><g class="recharts-layer"><g class="recharts-layer recharts-bar-rectangle"><path x="106.76666666666667" y="264" width="21" height="56" radius="0" fill="#A7A7A7" class="recharts-rectangle" d="M 106.76666666666667,264 h 21 v 56 h -21 Z"/></g><g class="recharts-layer recharts-bar-rectangle"><path x="185.59999999999997" y="180" width="21" height="140" radius="0" fill="#A7A7A7" class="recharts-rectangle" d="M 185.59999999999997,180 h 21 v 140 h -21 Z"/></g><g class="recharts-layer recharts-bar-rectangle"><path x="264.43333333333334" y="236" width="21" height="84" radius="0" fill="#A7A7A7" class="recharts-rectangle" d="M 264.43333333333334,236 h 21 v 84 h -21 Z"/></g><g class="recharts-layer recharts-bar-rectangle"><path x="343.26666666666665" y="187" width="21" height="133" radius="0" fill="#A7A7A7" class="recharts-rectangle" d="M 343.26666666666665,187 h 21 v 133 h -21 Z"/></g><g class="recharts-layer recharts-bar-rectangle"><path x="422.09999999999997" y="229" width="21" height="91" radius="0" fill="#A7A7A7" class="recharts-rectangle" d="M 422.09999999999997,229 h 21 v 91 h -21 Z"/></g><g class="recharts-layer recharts-bar-rectangle"><path x="500.9333333333333" y="222" width="21" height="98" radius="0" fill="#A7A7A7" class="recharts-rectangle" d="M 500.9333333333333,222 h 21 v 98 h -21 Z"/></g></g></g><g class="recharts-layer"/></g><g class="export-legend" style="display: block !important;"><rect x="432.84410095214844" y="15" width="12" height="12" fill="#76B900"/><text x="448.84410095214844" y="21" font-size="12" fill="#222222" font-family="NVIDIA" font-weight="bold" dominant-baseline="middle" text-anchor="start">Desktop</text></g><g class="export-legend" style="display: block !important;"><rect x="513.3240509033203" y="15" width="12" height="12" fill="#A7A7A7"/><text x="529.3240509033203" y="21" font-size="12" fill="#222222" font-family="NVIDIA" font-weight="bold" dominant-baseline="middle" text-anchor="start">Mobile</text></g></svg>